<?xml version="1.0" encoding="UTF-8" standalone="no"?>
<!DOCTYPE svg PUBLIC "-//W3C//DTD SVG 1.1//EN" "http://www.w3.org/Graphics/SVG/1.1/DTD/svg11.dtd">
<svg width="100%" height="100%" viewBox="0 0 1280 800" version="1.1" xmlns="http://www.w3.org/2000/svg" xmlns:xlink="http://www.w3.org/1999/xlink" xml:space="preserve" xmlns:serif="http://www.serif.com/" style="fill-rule:evenodd;clip-rule:evenodd;stroke-linejoin:round;stroke-miterlimit:2;">
    <g id="after_mask" transform="matrix(1,0,0,1,640,0)">
        <path d="M640,0L640,800L-240,800L-40,0L640,0Z" style="fill:rgb(235,235,235);"/>
    </g>
    <path id="before_mask" d="M600,0L400,800L0,800L0,0L600,0Z" style="fill:rgb(235,235,235);"/>
    <g id="before_label_box" transform="matrix(1.110117,0,0,0.751852,-111.011683,-416.296296)">
        <rect x="100" y="594" width="298" height="106" style="fill:rgb(99,102,241);"/>
        <g id="before_label" transform="matrix(0.677273,0,0,1,45.068174,275.762249)">
            <g transform="matrix(48,0,0,48,124.261699,388.037751)">
                <path d="M0.083,-0L0.083,-0.7L0.425,-0.7C0.513,-0.7 0.579,-0.683 0.624,-0.65C0.668,-0.617 0.69,-0.573 0.69,-0.518C0.69,-0.481 0.681,-0.449 0.663,-0.422C0.645,-0.396 0.621,-0.375 0.589,-0.36C0.558,-0.345 0.522,-0.338 0.481,-0.338L0.5,-0.379C0.544,-0.379 0.583,-0.372 0.617,-0.357C0.651,-0.343 0.677,-0.322 0.696,-0.294C0.716,-0.266 0.725,-0.231 0.725,-0.191C0.725,-0.131 0.702,-0.084 0.654,-0.05C0.607,-0.017 0.537,-0 0.445,-0L0.083,-0ZM0.244,-0.122L0.433,-0.122C0.475,-0.122 0.507,-0.129 0.529,-0.143C0.551,-0.156 0.561,-0.178 0.561,-0.208C0.561,-0.238 0.551,-0.26 0.529,-0.274C0.507,-0.288 0.475,-0.295 0.433,-0.295L0.232,-0.295L0.232,-0.413L0.405,-0.413C0.445,-0.413 0.475,-0.42 0.496,-0.434C0.516,-0.447 0.527,-0.468 0.527,-0.496C0.527,-0.523 0.516,-0.544 0.496,-0.558C0.475,-0.572 0.445,-0.578 0.405,-0.578L0.244,-0.578L0.244,-0.122Z" style="fill:white;fill-rule:nonzero;"/>
            </g>
            <g transform="matrix(48,0,0,48,160.960212,388.037751)">
                <path d="M0.083,-0L0.083,-0.7L0.612,-0.7L0.612,-0.57L0.244,-0.57L0.244,-0.13L0.625,-0.13L0.625,-0L0.083,-0ZM0.232,-0.292L0.232,-0.418L0.569,-0.418L0.569,-0.292L0.232,-0.292Z" style="fill:white;fill-rule:nonzero;"/>
            </g>
            <g transform="matrix(48,0,0,48,193.177322,388.037751)">
                <path d="M0.083,-0L0.083,-0.7L0.382,-0.7C0.479,-0.7 0.555,-0.677 0.609,-0.632C0.663,-0.587 0.69,-0.525 0.69,-0.446C0.69,-0.394 0.678,-0.349 0.653,-0.312C0.629,-0.274 0.594,-0.245 0.548,-0.225C0.503,-0.205 0.448,-0.195 0.386,-0.195L0.173,-0.195L0.245,-0.266L0.245,-0L0.083,-0ZM0.528,-0L0.353,-0.254L0.526,-0.254L0.703,-0L0.528,-0ZM0.245,-0.248L0.173,-0.324L0.377,-0.324C0.427,-0.324 0.464,-0.335 0.489,-0.357C0.514,-0.378 0.526,-0.408 0.526,-0.446C0.526,-0.485 0.514,-0.515 0.489,-0.536C0.464,-0.557 0.427,-0.568 0.377,-0.568L0.173,-0.568L0.245,-0.645L0.245,-0.248Z" style="fill:white;fill-rule:nonzero;"/>
            </g>
            <g transform="matrix(48,0,0,48,228.473908,388.037751)">
                <path d="M0.423,0.012C0.367,0.012 0.316,0.003 0.27,-0.015C0.223,-0.033 0.182,-0.059 0.148,-0.091C0.114,-0.124 0.087,-0.162 0.068,-0.206C0.049,-0.25 0.039,-0.298 0.039,-0.35C0.039,-0.402 0.049,-0.45 0.068,-0.494C0.087,-0.538 0.114,-0.576 0.148,-0.609C0.182,-0.642 0.223,-0.667 0.27,-0.685C0.316,-0.703 0.367,-0.712 0.422,-0.712C0.478,-0.712 0.528,-0.703 0.575,-0.685C0.621,-0.667 0.662,-0.642 0.696,-0.609C0.73,-0.577 0.757,-0.538 0.776,-0.495C0.795,-0.451 0.805,-0.402 0.805,-0.35C0.805,-0.298 0.795,-0.25 0.776,-0.205C0.757,-0.161 0.73,-0.123 0.696,-0.091C0.662,-0.058 0.621,-0.033 0.575,-0.015C0.528,0.003 0.478,0.012 0.423,0.012ZM0.422,-0.126C0.453,-0.126 0.482,-0.131 0.509,-0.142C0.535,-0.153 0.558,-0.168 0.578,-0.188C0.598,-0.208 0.613,-0.232 0.624,-0.259C0.635,-0.287 0.641,-0.317 0.641,-0.35C0.641,-0.383 0.635,-0.414 0.624,-0.441C0.613,-0.468 0.598,-0.492 0.578,-0.512C0.558,-0.532 0.535,-0.547 0.509,-0.558C0.482,-0.569 0.453,-0.574 0.422,-0.574C0.391,-0.574 0.362,-0.569 0.335,-0.558C0.309,-0.547 0.286,-0.532 0.266,-0.512C0.246,-0.492 0.231,-0.468 0.22,-0.441C0.209,-0.413 0.203,-0.383 0.203,-0.35C0.203,-0.317 0.209,-0.287 0.22,-0.259C0.231,-0.232 0.246,-0.208 0.266,-0.188C0.285,-0.168 0.309,-0.153 0.335,-0.142C0.362,-0.131 0.391,-0.126 0.422,-0.126Z" style="fill:white;fill-rule:nonzero;"/>
            </g>
            <g transform="matrix(48,0,0,48,268.975164,388.037751)">
                <path d="M0.083,-0L0.083,-0.7L0.382,-0.7C0.479,-0.7 0.555,-0.677 0.609,-0.632C0.663,-0.587 0.69,-0.525 0.69,-0.446C0.69,-0.394 0.678,-0.349 0.653,-0.312C0.629,-0.274 0.594,-0.245 0.548,-0.225C0.503,-0.205 0.448,-0.195 0.386,-0.195L0.173,-0.195L0.245,-0.266L0.245,-0L0.083,-0ZM0.528,-0L0.353,-0.254L0.526,-0.254L0.703,-0L0.528,-0ZM0.245,-0.248L0.173,-0.324L0.377,-0.324C0.427,-0.324 0.464,-0.335 0.489,-0.357C0.514,-0.378 0.526,-0.408 0.526,-0.446C0.526,-0.485 0.514,-0.515 0.489,-0.536C0.464,-0.557 0.427,-0.568 0.377,-0.568L0.173,-0.568L0.245,-0.645L0.245,-0.248Z" style="fill:white;fill-rule:nonzero;"/>
            </g>
            <g transform="matrix(48,0,0,48,304.271751,388.037751)">
                <path d="M0.083,-0L0.083,-0.7L0.612,-0.7L0.612,-0.57L0.244,-0.57L0.244,-0.13L0.625,-0.13L0.625,-0L0.083,-0ZM0.232,-0.292L0.232,-0.418L0.569,-0.418L0.569,-0.292L0.232,-0.292Z" style="fill:white;fill-rule:nonzero;"/>
            </g>
            <g transform="matrix(48,0,0,48,350.077886,388.037751)">
                <path d="M0.228,-0L0.228,-0.568L0.004,-0.568L0.004,-0.7L0.614,-0.7L0.614,-0.568L0.39,-0.568L0.39,-0L0.228,-0Z" style="fill:white;fill-rule:nonzero;"/>
            </g>
            <g transform="matrix(48,0,0,48,379.732084,388.037751)">
                <path d="M0.083,-0L0.083,-0.7L0.612,-0.7L0.612,-0.57L0.244,-0.57L0.244,-0.13L0.625,-0.13L0.625,-0L0.083,-0ZM0.232,-0.292L0.232,-0.418L0.569,-0.418L0.569,-0.292L0.232,-0.292Z" style="fill:white;fill-rule:nonzero;"/>
            </g>
            <g transform="matrix(48,0,0,48,411.661194,388.037751)">
                <path d="M0.003,-0L0.304,-0.415L0.304,-0.297L0.016,-0.7L0.2,-0.7L0.399,-0.419L0.322,-0.418L0.518,-0.7L0.694,-0.7L0.408,-0.304L0.408,-0.42L0.711,-0L0.524,-0L0.318,-0.297L0.392,-0.297L0.189,-0L0.003,-0Z" style="fill:white;fill-rule:nonzero;"/>
            </g>
            <g transform="matrix(48,0,0,48,444.509089,388.037751)">
                <path d="M0.228,-0L0.228,-0.568L0.004,-0.568L0.004,-0.7L0.614,-0.7L0.614,-0.568L0.39,-0.568L0.39,-0L0.228,-0Z" style="fill:white;fill-rule:nonzero;"/>
            </g>
        </g>
    </g>
    <g id="after_label_box" transform="matrix(1.110117,0,0,0.751852,839.173502,-416.296296)">
        <rect x="100" y="594" width="298" height="106" style="fill:rgb(99,102,241);"/>
        <g id="after_label" transform="matrix(0.677273,0,0,1,62.607102,275.196749)">
            <g transform="matrix(48,0,0,48,124.261699,388.037751)">
                <path d="M-0.009,-0L0.303,-0.7L0.463,-0.7L0.776,-0L0.606,-0L0.35,-0.618L0.414,-0.618L0.157,-0L-0.009,-0ZM0.147,-0.15L0.19,-0.273L0.55,-0.273L0.594,-0.15L0.147,-0.15Z" style="fill:white;fill-rule:nonzero;"/>
            </g>
            <g transform="matrix(48,0,0,48,161.038117,388.037751)">
                <path d="M0.083,-0L0.083,-0.7L0.612,-0.7L0.612,-0.57L0.245,-0.57L0.245,-0L0.083,-0ZM0.233,-0.255L0.233,-0.385L0.569,-0.385L0.569,-0.255L0.233,-0.255Z" style="fill:white;fill-rule:nonzero;"/>
            </g>
            <g transform="matrix(48,0,0,48,191.95841,388.037751)">
                <path d="M0.228,-0L0.228,-0.568L0.004,-0.568L0.004,-0.7L0.614,-0.7L0.614,-0.568L0.39,-0.568L0.39,-0L0.228,-0Z" style="fill:white;fill-rule:nonzero;"/>
            </g>
            <g transform="matrix(48,0,0,48,221.612608,388.037751)">
                <path d="M0.083,-0L0.083,-0.7L0.612,-0.7L0.612,-0.57L0.244,-0.57L0.244,-0.13L0.625,-0.13L0.625,-0L0.083,-0ZM0.232,-0.292L0.232,-0.418L0.569,-0.418L0.569,-0.292L0.232,-0.292Z" style="fill:white;fill-rule:nonzero;"/>
            </g>
            <g transform="matrix(48,0,0,48,253.829718,388.037751)">
                <path d="M0.083,-0L0.083,-0.7L0.382,-0.7C0.479,-0.7 0.555,-0.677 0.609,-0.632C0.663,-0.587 0.69,-0.525 0.69,-0.446C0.69,-0.394 0.678,-0.349 0.653,-0.312C0.629,-0.274 0.594,-0.245 0.548,-0.225C0.503,-0.205 0.448,-0.195 0.386,-0.195L0.173,-0.195L0.245,-0.266L0.245,-0L0.083,-0ZM0.528,-0L0.353,-0.254L0.526,-0.254L0.703,-0L0.528,-0ZM0.245,-0.248L0.173,-0.324L0.377,-0.324C0.427,-0.324 0.464,-0.335 0.489,-0.357C0.514,-0.378 0.526,-0.408 0.526,-0.446C0.526,-0.485 0.514,-0.515 0.489,-0.536C0.464,-0.557 0.427,-0.568 0.377,-0.568L0.173,-0.568L0.245,-0.645L0.245,-0.248Z" style="fill:white;fill-rule:nonzero;"/>
            </g>
            <g transform="matrix(48,0,0,48,302.71533,388.037751)">
                <path d="M0.228,-0L0.228,-0.568L0.004,-0.568L0.004,-0.7L0.614,-0.7L0.614,-0.568L0.39,-0.568L0.39,-0L0.228,-0Z" style="fill:white;fill-rule:nonzero;"/>
            </g>
            <g transform="matrix(48,0,0,48,332.369528,388.037751)">
                <path d="M0.083,-0L0.083,-0.7L0.612,-0.7L0.612,-0.57L0.244,-0.57L0.244,-0.13L0.625,-0.13L0.625,-0L0.083,-0ZM0.232,-0.292L0.232,-0.418L0.569,-0.418L0.569,-0.292L0.232,-0.292Z" style="fill:white;fill-rule:nonzero;"/>
            </g>
            <g transform="matrix(48,0,0,48,364.298638,388.037751)">
                <path d="M0.003,-0L0.304,-0.415L0.304,-0.297L0.016,-0.7L0.2,-0.7L0.399,-0.419L0.322,-0.418L0.518,-0.7L0.694,-0.7L0.408,-0.304L0.408,-0.42L0.711,-0L0.524,-0L0.318,-0.297L0.392,-0.297L0.189,-0L0.003,-0Z" style="fill:white;fill-rule:nonzero;"/>
            </g>
            <g transform="matrix(48,0,0,48,397.146532,388.037751)">
                <path d="M0.228,-0L0.228,-0.568L0.004,-0.568L0.004,-0.7L0.614,-0.7L0.614,-0.568L0.39,-0.568L0.39,-0L0.228,-0Z" style="fill:white;fill-rule:nonzero;"/>
            </g>
        </g>
    </g>
    <g id="separator_group" transform="matrix(1,0,0,1,-139,0)">
        <g id="separator" transform="matrix(0.398216,0.099543,-0.27247,1.090001,555.441879,-66.631864)">
            <path d="M556.083,-7.77L486,800L471,800L471,0L556.083,-7.77Z"/>
        </g>
        <g id="separator1" serif:id="separator" transform="matrix(0.398216,0.099543,-0.27247,1.090001,554.441879,-66.631864)">
            <path d="M556.083,-7.77L486,800L471,800L471,0L556.083,-7.77Z" style="fill:rgb(99,102,241);"/>
        </g>
    </g>
</svg>
